<svg width="10" height="12" viewBox="0 0 4 6" fill="none" xmlns="http://www.w3.org/2000/svg">
<path fill-rule="evenodd" clip-rule="evenodd" d="M3.54458 2.70542C3.6227 2.78355 3.66658 2.88951 3.66658 3C3.66658 3.11048 3.6227 3.21645 3.54458 3.29458L1.1875 5.65167C1.14906 5.69146 1.10309 5.7232 1.05225 5.74504C1.00142 5.76688 0.946742 5.77837 0.891418 5.77885C0.836093 5.77933 0.781227 5.76879 0.73002 5.74784C0.678813 5.72689 0.632291 5.69595 0.593169 5.65683C0.554047 5.61771 0.523108 5.57119 0.502158 5.51998C0.481208 5.46877 0.470665 5.41391 0.471146 5.35858C0.471627 5.30326 0.483121 5.24858 0.504958 5.19775C0.526795 5.14691 0.558538 5.10094 0.598334 5.0625L2.66083 3L0.598333 0.937499C0.522434 0.858914 0.480437 0.753664 0.481386 0.644415C0.482335 0.535167 0.526156 0.430662 0.603409 0.353408C0.680662 0.276155 0.785168 0.232334 0.894416 0.231385C1.00366 0.230435 1.10892 0.272433 1.1875 0.348332L3.54458 2.70542Z" fill="black"/>
</svg>
