<svg width="20" height="21" viewBox="0 0 10 11" fill="none" xmlns="http://www.w3.org/2000/svg">
<path d="M2.33333 5.00001C2.33333 3.74312 2.33333 3.11423 2.72399 2.72401C3.11422 2.33334 3.74311 2.33334 4.99999 2.33334H6.33333C7.59022 2.33334 8.21911 2.33334 8.60933 2.72401C8.99999 3.11423 8.99999 3.74312 8.99999 5.00001V7.22223C8.99999 8.47912 8.99999 9.10801 8.60933 9.49823C8.21911 9.8889 7.59022 9.8889 6.33333 9.8889H4.99999C3.74311 9.8889 3.11422 9.8889 2.72399 9.49823C2.33333 9.10801 2.33333 8.47912 2.33333 7.22223V5.00001Z" stroke="black" stroke-width="0.5"/>
<path d="M2.33333 8.55556C1.97971 8.55556 1.64057 8.41508 1.39052 8.16503C1.14048 7.91498 1 7.57584 1 7.22222V4.55556C1 2.87956 1 2.04133 1.52089 1.52089C2.04133 1 2.87956 1 4.55555 1H6.33333C6.68695 1 7.02609 1.14048 7.27614 1.39052C7.52619 1.64057 7.66667 1.97971 7.66667 2.33333" stroke="black" stroke-width="0.5"/>
</svg>
